<?xml version="1.0" encoding="utf-8"?>
<!DOCTYPE svg PUBLIC "-//W3C//DTD SVG 20010904//EN"
 "http://www.w3.org/TR/2001/REC-SVG-20010904/DTD/svg10.dtd">
<svg version="1.0" xmlns="http://www.w3.org/2000/svg"
 width="600.000000pt" height="536.000000pt" viewBox="0 0 600.000000 536.000000"
 preserveAspectRatio="xMidYMid meet">

<g transform="translate(0.000000,536.000000) scale(0.100000,-0.100000)"
fill="#000000" stroke="none">

<path id="ANK-18" title="Kızılcahamam" class="land" d="M3389 5205 c-97 -12 -127 -24 -192 -79 l-29 -23 49 -31 c26 -16 86
-49 133 -72 47 -23 93 -53 102 -65 14 -19 19 -51 23 -157 6 -192 -1 -231 -59
-306 l-47 -62 -61 0 c-34 0 -95 -9 -136 -21 -44 -12 -87 -18 -106 -15 -52 9
-61 -5 -32 -49 14 -21 31 -56 37 -79 6 -22 21 -57 32 -78 20 -33 20 -40 8 -70
-22 -54 -45 -138 -39 -143 3 -3 43 13 89 34 88 42 129 49 215 37 l51 -8 18 72
c24 96 49 114 150 105 39 -3 120 -10 180 -15 61 -4 117 -11 127 -15 19 -8 85
24 112 54 26 29 26 102 -1 161 -17 39 -19 56 -12 112 10 81 40 131 103 171
l45 28 -19 43 c-18 43 -18 44 1 75 17 29 18 34 4 60 -13 27 -19 29 -102 35
-108 9 -156 33 -233 121 -30 33 -83 90 -119 128 l-65 67 -66 -1 c-36 -1 -108
-7 -161 -14z"/>

<path id="ANK-06" title="Çamlıdere" class="land" d="M3280 5000 c8 -15 8 -31 -2 -61 -15 -50 -45 -71 -137 -94 -170 -44
-279 -88 -312 -129 -10 -11 -32 -46 -48 -76 -29 -55 -30 -57 -18 -123 10 -63
15 -70 72 -127 l62 -61 69 36 c54 29 75 35 102 30 20 -4 55 1 90 11 31 9 91
20 132 23 l74 6 46 59 45 58 0 168 c0 128 -4 174 -15 195 -9 18 -42 41 -93 66
-66 34 -76 37 -67 19z"/>

<path id="ANK-08" title="Çubuk" class="land" d="M4476 4673 l-49 -25 -132 18 -131 17 -44 -32 c-71 -51 -91 -83 -100
-158 -6 -50 -5 -73 5 -92 46 -90 39 -171 -19 -215 -19 -14 -39 -26 -45 -26
-15 0 -13 -11 4 -34 21 -28 19 -70 -5 -91 -29 -26 -26 -83 5 -125 25 -34 25
-34 25 -8 0 34 24 89 49 112 27 24 89 26 106 2 28 -37 -5 -123 -41 -109 -25
10 -15 -18 20 -50 27 -26 33 -38 29 -60 -4 -19 -1 -29 11 -33 9 -3 16 -14 16
-23 0 -10 11 -23 25 -29 15 -7 25 -8 25 -2 0 6 12 10 28 10 33 1 54 16 74 54
8 15 43 52 78 82 55 46 70 54 105 54 54 0 146 19 165 33 8 7 25 33 37 58 21
45 21 51 10 179 l-11 133 -96 193 -95 193 -49 -26z"/>

<path id="ANK-16" title="Kalecik" class="land" d="M4938 4351 c-16 -22 -28 -43 -28 -49 0 -10 -102 -52 -129 -52 -9 0
-23 6 -30 13 -11 10 -12 -3 -6 -78 12 -124 10 -157 -10 -194 l-16 -33 53 3
c29 1 63 -3 75 -10 31 -16 39 -55 19 -87 -10 -14 -14 -33 -11 -44 3 -11 6 -42
7 -70 0 -40 -6 -60 -28 -93 -37 -55 -65 -117 -58 -128 3 -5 11 -9 18 -9 31 0
164 -63 193 -92 l32 -31 79 51 c67 45 85 52 126 52 45 0 54 5 115 56 43 37 71
69 79 93 13 35 12 37 -22 66 -34 30 -34 30 -21 72 24 78 27 145 10 186 -16 38
-16 39 18 85 18 26 46 70 62 97 15 28 46 67 69 87 l41 37 -67 1 c-69 0 -165
19 -348 69 -58 16 -125 32 -150 35 -43 6 -46 5 -72 -33z"/>

<path id="ANK-05" title="Beypazarı" class="land" d="M2335 4328 c-39 -22 -81 -50 -96 -64 -23 -22 -33 -24 -133 -24 -62 0
-136 -7 -177 -16 l-69 -16 0 -64 c0 -38 -6 -77 -15 -94 -8 -15 -25 -73 -38
-127 -26 -107 -25 -116 23 -168 41 -44 73 -155 65 -223 -4 -30 -12 -70 -19
-90 -12 -34 -11 -41 15 -91 16 -30 29 -63 29 -75 0 -12 4 -26 8 -32 10 -17 80
-50 132 -64 56 -15 107 -62 121 -113 5 -21 13 -37 17 -35 4 2 52 26 105 53 91
46 98 52 92 75 -19 88 -22 79 73 222 63 96 93 151 102 189 7 30 28 85 48 124
l35 70 -15 133 c-13 126 -13 134 4 143 22 12 23 36 2 78 -9 18 -21 58 -27 91
-11 57 -12 59 -72 94 -33 19 -79 42 -100 49 -39 14 -42 14 -110 -25z"/>

<path id="ANK-20" title="Nallıhan" class="land" d="M1132 4340 c-35 -9 -69 -23 -75 -29 -14 -14 -177 -14 -272 0 -104 15
-163 4 -201 -38 -28 -31 -32 -43 -38 -116 -4 -45 -9 -90 -12 -99 -3 -9 -28
-31 -57 -50 -28 -18 -86 -64 -127 -101 -41 -38 -97 -80 -123 -93 -26 -14 -50
-31 -53 -39 -9 -22 42 -96 90 -131 64 -48 165 -78 237 -70 33 4 78 14 100 22
47 16 163 18 224 4 34 -8 49 -5 117 25 70 30 81 32 120 23 24 -6 75 -10 113
-9 39 1 87 -1 108 -5 32 -5 37 -9 37 -34 0 -17 -8 -33 -22 -42 -22 -14 -21
-15 27 -33 46 -18 54 -18 176 -3 74 10 146 25 174 37 42 19 49 19 75 6 22 -12
28 -23 34 -64 5 -38 12 -53 32 -66 22 -14 28 -15 35 -4 10 17 29 102 29 131 0
40 -42 161 -63 182 -57 57 -58 61 -27 190 15 65 33 123 39 129 17 17 14 137
-3 137 -8 0 -58 -9 -111 -20 -188 -39 -247 -25 -309 71 -71 109 -134 130 -274
89z"/>

<path id="ANK-13" title="Güdül" class="land" d="M2950 4335 c-19 -13 -43 -24 -53 -24 -10 -1 -29 -13 -42 -28 -15 -19
-44 -34 -88 -46 -60 -17 -67 -18 -95 -3 -17 9 -34 16 -38 16 -10 0 5 -67 28
-118 24 -54 24 -82 -1 -99 -16 -12 -16 -21 -5 -120 7 -60 13 -116 14 -125 0
-18 53 -50 104 -62 41 -10 154 29 192 68 18 17 46 42 64 55 30 23 32 27 26 72
-7 51 8 131 31 164 18 27 17 43 -12 99 -14 27 -25 57 -25 66 0 13 -57 112 -63
109 -1 0 -18 -11 -37 -24z"/>

<path id="ANK-15" title="Kahramankazan" class="land" d="M3498 4159 c-23 -24 -35 -64 -87 -303 l-19 -88 41 -125 c39 -123 40
-125 51 -92 13 39 35 49 43 21 9 -38 103 -50 103 -14 0 10 29 42 65 72 43 37
63 60 60 71 -3 9 2 32 10 53 9 20 14 49 13 64 -3 25 0 27 35 30 24 2 42 10 50
23 6 10 15 19 19 19 4 0 19 5 34 10 21 8 24 14 16 22 -7 7 -12 34 -12 60 0 37
5 51 20 60 36 23 19 81 -28 99 -15 6 -76 15 -137 20 -60 5 -142 12 -182 15
-66 6 -73 5 -95 -17z"/>

<path id="ANK-03" title="Ayaş" class="land" d="M3264 4009 c-23 -4 -74 -24 -113 -43 -64 -33 -71 -39 -71 -65 0 -29
-6 -36 -102 -127 -14 -13 -59 -36 -100 -50 -78 -26 -100 -25 -174 7 l-42 18
-35 -82 c-19 -45 -38 -98 -42 -117 -4 -19 -45 -93 -92 -163 -46 -71 -87 -135
-90 -143 -3 -8 0 -34 7 -58 l12 -43 61 17 c39 11 84 15 122 13 33 -3 73 -4 89
-4 20 0 47 -13 80 -38 28 -20 77 -49 108 -63 38 -18 64 -38 80 -62 13 -20 31
-36 40 -36 21 0 83 90 94 135 4 17 13 39 20 50 8 11 14 27 14 35 0 9 12 40 26
68 24 48 25 57 15 97 -14 55 -14 139 0 189 12 43 79 122 112 132 32 9 67 44
83 84 12 27 54 213 54 235 0 4 -21 8 -95 19 -11 2 -39 0 -61 -5z"/>

<path id="ANK-22" title="Pursaklar" class="land" d="M4073 4010 c-37 -15 -65 -69 -59 -113 4 -33 1 -39 -20 -47 -13 -5
-24 -16 -24 -24 0 -8 -3 -16 -7 -18 -5 -1 -16 -17 -25 -34 -16 -28 -16 -32 -1
-55 9 -13 17 -25 17 -26 1 -1 19 2 42 6 61 11 81 -9 81 -82 1 -31 -2 -57 -7
-57 -11 0 -20 -39 -13 -56 9 -23 35 -12 53 21 13 23 24 30 48 30 19 0 32 5 32
12 0 7 7 13 16 13 11 0 15 -8 12 -27 -3 -26 -1 -28 35 -28 47 0 68 11 48 24
-8 5 -20 7 -28 4 -9 -4 -13 5 -13 32 0 30 -3 36 -16 31 -9 -4 -23 -1 -30 5
-12 10 -12 15 1 35 14 22 13 23 -25 41 -23 10 -40 25 -40 35 0 9 -4 20 -10 23
-5 3 -10 21 -10 40 0 27 -7 39 -34 60 -24 18 -32 31 -29 45 5 19 10 22 43 24
23 2 33 68 13 84 -19 14 -20 14 -50 2z"/>

<path id="ANK-01" title="Akyurt" class="land" d="M4684 3924 c-12 -8 -64 -20 -115 -26 -93 -12 -95 -12 -155 -64 -34
-30 -67 -66 -73 -82 -12 -28 -47 -52 -76 -52 -8 0 -15 -8 -15 -18 0 -10 -6
-24 -12 -31 -11 -11 -8 -12 15 -7 21 5 29 2 34 -11 11 -29 46 -63 64 -63 50 0
124 -25 154 -51 l33 -30 63 21 c34 12 81 22 105 23 42 2 44 4 65 52 12 28 30
61 40 74 29 37 40 88 28 138 -8 36 -6 50 8 74 13 22 15 34 7 47 -15 24 -139
28 -170 6z"/>

<path id="ANK-17" title="Keçiören" class="land" d="M3913 3880 c-12 -5 -25 -16 -30 -25 -6 -9 -28 -19 -50 -22 -31 -4
-40 -9 -36 -22 2 -9 -3 -36 -12 -60 -8 -24 -13 -46 -11 -49 3 -2 18 -1 33 3
15 5 35 9 43 9 19 2 50 -23 50 -39 0 -7 8 -23 19 -36 16 -21 17 -32 9 -79 -13
-77 -10 -123 7 -133 8 -4 15 -17 15 -27 0 -13 7 -20 20 -20 11 0 30 -6 41 -12
18 -12 24 -9 50 22 36 43 38 76 5 84 -13 3 -26 13 -30 21 -6 17 3 75 13 75 9
0 7 83 -3 99 -6 9 -21 12 -52 7 -41 -5 -45 -3 -70 30 l-27 35 19 37 c10 20 21
39 24 42 15 15 30 52 25 60 -7 12 -22 12 -52 0z"/>

<path id="ANK-23" title="Sincan" class="land" d="M3349 3697 c-20 -18 -57 -45 -82 -60 -80 -49 -106 -147 -76 -287 9
-43 8 -55 -6 -76 -14 -22 -42 -93 -56 -143 -2 -9 4 -17 16 -19 11 -2 31 -14
45 -27 32 -29 126 -43 161 -24 13 7 37 13 53 13 24 1 31 7 40 34 7 19 20 38
30 44 16 9 17 18 12 69 -5 41 -4 59 4 59 17 0 37 23 32 38 -2 6 1 12 6 12 6 0
9 22 9 50 -2 37 -6 50 -17 50 -16 0 -54 38 -56 55 0 6 -8 27 -17 49 -9 21 -17
44 -17 50 0 7 -10 42 -22 78 l-23 67 -36 -32z"/>

<path id="ANK-25" title="Yenimahalle" class="land" d="M3794 3675 c-62 -31 -144 -106 -144 -132 0 -16 -6 -23 -19 -23 -11 0
-22 -4 -26 -9 -7 -12 -84 21 -96 40 -6 10 -9 4 -9 -16 0 -17 -5 -36 -12 -43
-9 -9 -8 -12 5 -12 9 0 17 -7 17 -16 0 -12 5 -14 18 -8 9 4 42 8 72 9 48 0 55
-3 56 -20 0 -11 1 -27 2 -37 1 -9 24 -32 51 -52 39 -29 58 -36 95 -36 32 0 48
-5 52 -15 5 -11 11 -12 24 -5 30 16 40 12 40 -15 0 -14 5 -25 10 -25 6 0 10 7
10 15 0 8 9 15 19 15 14 0 18 5 14 20 -3 11 0 27 7 35 11 13 8 15 -13 15 -18
0 -28 7 -33 23 -3 12 -12 29 -19 37 -17 21 -27 80 -16 94 14 17 17 92 4 108
-7 7 -16 25 -22 39 -13 35 -37 39 -87 14z"/>

<path id="ANK-02" title="Altındağ" class="land" d="M4340 3540 c0 -5 -10 -15 -22 -21 -39 -21 -85 -21 -123 1 -19 11 -40
20 -46 20 -13 0 -39 -63 -39 -96 0 -36 -55 -104 -85 -104 -27 0 -38 -12 -29
-33 12 -32 38 -29 72 7 18 20 39 36 46 36 8 0 35 9 61 20 55 24 55 24 55 7 0
-15 31 -47 44 -47 5 0 0 12 -9 27 -18 26 -17 27 9 50 23 19 38 23 97 23 56 0
76 4 102 22 18 13 34 24 36 25 10 6 -28 38 -64 54 -43 20 -105 25 -105 9z"/>

<path id="ANK-09" title="Elmadağ" class="land" d="M4655 3506 c-28 -7 -82 -27 -119 -44 l-68 -32 7 -68 c5 -37 7 -109 6
-161 -2 -90 -4 -98 -42 -161 -21 -36 -39 -71 -39 -77 0 -6 12 -16 28 -21 47
-18 124 -85 146 -129 20 -41 54 -61 78 -47 5 4 39 6 74 5 l64 -1 -6 28 c-3 15
1 78 10 140 13 95 21 123 55 184 22 40 45 92 52 115 7 25 29 58 55 84 24 24
44 48 44 54 0 23 -68 73 -140 102 -94 38 -141 45 -205 29z"/>

<path id="ANK-10" title="Etimesgut" class="land" d="M3558 3444 c-3 -3 -4 -31 -2 -62 2 -44 -1 -65 -16 -90 -11 -18 -23
-32 -28 -32 -5 0 -6 -27 -4 -60 4 -50 2 -60 -11 -60 -15 0 -37 -28 -37 -47 0
-4 13 -14 29 -21 15 -7 33 -22 38 -35 9 -21 12 -19 34 28 29 64 146 165 190
165 15 0 38 4 51 9 13 6 39 12 59 16 22 3 36 11 36 20 0 11 -5 12 -19 4 -22
-12 -52 -4 -43 11 4 6 -11 10 -37 10 -34 0 -55 8 -101 41 -54 38 -61 51 -60
97 1 12 -68 18 -79 6z"/>

<path id="ANK-19" title="Mamak" class="land" d="M4324 3411 c-11 -1 -27 -10 -37 -19 -16 -14 -16 -17 -1 -33 9 -10 14
-25 11 -34 -9 -22 -40 -18 -66 9 -22 23 -25 23 -57 10 -18 -8 -43 -14 -54 -14
-11 0 -20 -7 -20 -15 0 -8 -7 -15 -16 -15 -10 0 -12 -5 -7 -12 4 -7 7 -20 8
-29 0 -10 12 -30 26 -45 199 -221 182 -205 236 -208 l50 -3 30 56 c37 67 48
167 32 277 l-11 72 -53 4 c-29 1 -61 1 -71 -1z"/>

<path id="ANK-07" title="Çankaya" class="land" d="M3968 3269 c-10 -5 -18 -19 -18 -29 0 -21 -19 -27 -35 -11 -6 6 -29
7 -52 4 -33 -4 -48 -13 -68 -39 -15 -19 -21 -35 -15 -39 18 -11 11 -33 -12
-41 -35 -11 -50 -36 -32 -55 11 -12 27 -15 64 -11 40 4 51 1 56 -12 4 -10 18
-16 35 -16 17 0 29 -5 29 -12 0 -9 18 -13 53 -14 28 0 75 -9 102 -18 109 -39
112 -39 148 -12 19 14 39 26 45 26 7 0 12 3 12 8 0 4 -52 60 -114 125 -63 66
-112 125 -110 132 4 9 -2 11 -19 8 -14 -3 -28 0 -31 6 -9 13 -16 13 -38 0z"/>

<path id="ANK-25" title="Yenimahalle" class="land" d="M3664 3157 c-39 -33 -69 -69 -83 -99 -19 -41 -45 -68 -65 -68 -3 0
-6 10 -6 23 0 38 -44 50 -142 38 -4 -1 -6 -19 -5 -42 2 -22 -2 -43 -9 -47 -19
-12 -32 -65 -21 -89 8 -19 13 -20 39 -11 22 8 36 7 53 -2 13 -7 29 -10 37 -8
17 6 37 -21 38 -49 0 -24 14 -31 25 -13 3 6 15 10 26 10 15 0 19 7 19 33 0 27
9 41 45 73 29 24 50 53 57 76 11 36 37 56 58 43 18 -11 11 10 -9 27 -17 15
-18 21 -8 47 8 23 18 31 37 31 24 1 24 1 6 15 -19 15 -19 15 4 40 l23 25 -29
0 c-20 -1 -47 -16 -90 -53z"/>

<path id="ANK-21" title="Polatlı" class="land" d="M2480 3140 c-80 -22 -321 -148 -368 -192 -19 -18 -45 -57 -58 -87
-24 -53 -24 -55 -8 -105 9 -28 36 -89 59 -136 23 -47 59 -132 80 -190 52 -141
65 -157 129 -165 72 -9 108 -24 102 -44 -3 -9 -8 -34 -12 -56 -8 -50 -19 -72
-52 -108 -25 -26 -25 -29 -13 -70 7 -23 13 -54 12 -69 0 -16 4 -28 8 -28 15 0
110 -90 116 -111 5 -16 -14 -42 -98 -128 -125 -128 -170 -192 -160 -230 3 -14
28 -58 54 -97 26 -39 59 -99 74 -134 33 -79 140 -198 222 -247 l58 -35 52 16
c50 16 52 18 67 70 9 30 16 60 16 66 0 10 16 11 63 5 70 -9 129 -7 139 3 19
19 99 259 94 282 -3 14 -16 77 -29 141 -19 91 -32 127 -60 172 -42 65 -45 93
-17 139 25 41 25 55 1 109 -19 42 -16 72 9 89 8 5 100 159 100 166 0 2 12 23
26 45 15 25 24 50 21 63 -10 39 35 150 73 183 20 17 95 90 168 161 127 125
132 132 132 171 0 38 -2 41 -28 41 -15 0 -33 5 -38 10 -7 7 -21 7 -43 -1 -28
-10 -34 -9 -46 7 -19 25 -19 85 0 110 8 10 15 31 15 45 0 25 -3 27 -62 33 -42
5 -73 15 -93 30 -41 31 -75 42 -75 23 0 -8 -18 -42 -40 -75 -33 -52 -44 -62
-67 -62 -21 1 -35 11 -56 41 -18 26 -44 48 -75 61 -26 11 -69 37 -96 56 -27
20 -61 37 -75 38 -141 11 -160 11 -221 -6z"/>

<path id="ANK-12" title="Gölbaşı" class="land" d="M3760 3015 c-7 -9 -21 -13 -34 -9 -19 4 -24 -2 -40 -45 -10 -28 -26
-53 -35 -56 -30 -9 -59 -49 -63 -84 -2 -29 -8 -36 -33 -43 -19 -5 -62 -42
-121 -103 l-90 -96 30 -18 c17 -9 48 -26 69 -36 20 -11 37 -25 37 -32 0 -25
42 -25 102 2 49 22 71 26 111 22 44 -4 56 -10 85 -43 50 -59 78 -121 92 -203
12 -75 21 -90 81 -136 14 -11 30 -34 36 -50 8 -26 5 -37 -29 -89 -39 -60 -49
-112 -24 -122 7 -3 25 -6 39 -8 15 -1 36 -11 48 -22 21 -19 22 -42 3 -146 -6
-35 -4 -39 22 -48 15 -6 51 -12 78 -13 51 -2 51 -2 54 31 3 27 -4 41 -36 76
-79 86 -79 113 4 197 l55 56 -58 111 -57 111 17 48 c21 58 22 128 3 165 -8 14
-19 43 -26 65 -7 21 -18 47 -25 59 -7 11 -18 37 -23 57 -15 55 17 143 85 230
29 38 53 73 53 78 0 5 -12 11 -27 14 -16 4 -57 15 -92 27 -42 13 -76 18 -101
14 -28 -4 -39 -2 -44 9 -3 9 -18 15 -36 15 -20 0 -30 5 -30 15 0 20 -63 20
-80 0z"/>

<path id="ANK-04" title="Bala" class="land" d="M4275 2971 c-68 -32 -183 -174 -214 -264 -22 -64 -22 -70 35 -197 33
-72 38 -95 38 -155 0 -38 -6 -84 -14 -102 -13 -31 -12 -35 43 -143 31 -61 57
-113 57 -116 0 -2 -27 -34 -60 -69 -33 -35 -60 -73 -60 -84 0 -10 21 -42 46
-70 l46 -51 30 25 30 26 32 -20 c25 -16 31 -28 33 -58 4 -60 26 -173 34 -179
16 -10 44 15 73 63 26 44 42 55 133 102 l103 54 17 -22 c16 -19 30 -21 143
-24 86 -3 161 -12 240 -29 63 -14 129 -28 147 -31 l32 -6 -34 57 c-18 31 -41
82 -51 112 -9 30 -27 71 -40 90 -12 19 -28 54 -35 77 -10 35 -16 42 -45 48
-20 3 -41 16 -52 33 -22 32 -52 201 -45 254 4 26 -4 59 -25 115 -16 43 -33 98
-37 123 -11 78 -11 78 -93 104 -69 21 -77 27 -80 51 -2 15 4 35 13 45 22 24 5
34 -38 22 -59 -17 -93 -5 -113 39 -21 47 -65 88 -140 130 -36 21 -53 37 -52
48 4 24 -48 25 -97 2z"/>

<path id="ANK-14" title="Haymana" class="land" d="M3241 2488 c-67 -66 -85 -90 -100 -136 -10 -32 -17 -71 -14 -88 3
-20 -1 -35 -11 -43 -9 -8 -16 -17 -16 -21 0 -12 -101 -182 -127 -213 -22 -27
-22 -29 -7 -65 26 -60 27 -77 5 -120 -12 -23 -21 -49 -21 -58 0 -9 18 -45 40
-80 22 -35 40 -71 40 -81 0 -10 12 -73 26 -139 l27 -122 -47 -122 c-25 -68
-45 -124 -44 -126 2 -1 27 3 57 9 l55 10 40 -45 c35 -39 119 -98 139 -98 3 0
42 43 87 95 66 76 88 96 116 101 19 3 90 43 157 89 73 49 137 85 160 89 48 9
78 55 100 152 16 68 70 203 86 214 12 8 31 70 31 100 0 33 -28 60 -63 60 -64
0 -73 59 -22 144 41 69 43 89 11 119 -14 12 -38 34 -54 49 -23 21 -31 40 -41
99 -15 93 -38 145 -88 197 -35 37 -45 42 -84 42 -26 0 -66 -11 -97 -25 -67
-31 -77 -31 -106 -1 -13 12 -53 39 -89 59 l-64 35 -82 -80z"/>

<path id="ANK-24" title="Şereflikoçhisar" class="land" d="M4654 1616 c-29 -28 -66 -79 -84 -113 l-32 -62 26 -64 c20 -45 41
-75 74 -103 67 -57 129 -98 187 -123 38 -17 58 -34 84 -73 l34 -52 -5 -280 -6
-281 34 -66 c29 -58 44 -74 123 -132 49 -36 99 -79 111 -95 l22 -30 81 19
c119 26 201 58 299 114 l86 50 55 100 c65 118 100 249 90 335 l-6 51 -86 -6
c-47 -4 -91 -8 -97 -10 -21 -6 -53 25 -63 61 -7 25 -6 50 5 91 8 30 16 59 19
63 2 3 -13 35 -35 70 -21 35 -44 86 -51 113 -11 48 -11 52 11 69 12 10 28 18
36 18 24 0 16 19 -43 104 -54 78 -63 86 -176 154 -79 48 -130 72 -150 72 -17
0 -44 4 -61 9 -101 30 -239 51 -331 50 l-100 -2 -51 -51z"/>

<path id="ANK-11" title="Evren" class="land" d="M5564 1260 c-12 -5 -25 -13 -28 -19 -10 -15 14 -90 43 -136 48 -74
50 -84 29 -147 -16 -46 -17 -63 -9 -96 6 -22 17 -42 24 -44 13 -5 189 10 195
17 3 2 -3 36 -12 76 -21 92 -20 111 4 132 21 18 27 47 9 47 -7 0 -9 19 -4 58
l7 59 -44 -7 c-38 -5 -50 -1 -104 32 -64 40 -75 42 -110 28z"/>

</g>
</svg>